:version 1.10
:name ASF
:units
  mass 1
  length 1
  angle deg
:documentation
  ASF file generated by Kaydara
:root
  axis xyz
  order  tx ty tz rx ry rz
  position 0 0 0
  orientation 0 0 0
:bonedata
  begin
    id 1
    name RightUpLegDummy
    direction -0.718183 -0.695806 0.00816078
    length 4.904
    axis 0 0 0 xyz
  end
  begin
    id 2
    name RightUpLeg
    direction 3.52958e-006 -0.995788 0.0916897
    length 17.4976
    axis -3.49089 -0.000906604 0.000286563 xyz
    dof rx ry rz
  end
  begin
    id 3
    name RightLeg
    direction 0.00371092 -0.995096 -0.0988418
    length 16.5821
    axis 3.68512 0.0193729 -0.131024 xyz
    dof rx ry rz
  end
  begin
    id 4
    name RightFoot
    direction 0.000791509 -0.46099 0.887405
    length 3.77069
    axis 4.79326e-005 -0.12048 -0.188786 xyz
    dof rx ry rz
  end
  begin
    id 5
    name RightToes
    direction 0.00124744 -0.014064 0.9999
    length 3.85082
    axis 0.000481823 0.542162 -0.142575 xyz
    dof rx ry rz
  end
  begin
    id 6
    name SpineDummy
    direction 8.3039e-015 1 4.5985e-016
    length 4.6813
    axis 0 0 0 xyz
  end
  begin
    id 7
    name Spine
    direction -2.76001e-008 0.999988 0.00495137
    length 10.1015
    axis -0.00138904 0.000121419 2.18259e-006 xyz
    dof rx ry rz
  end
  begin
    id 8
    name Spine1
    direction 0 0 0
    length 0
    axis -0.00138909 0.000121453 1.00341e-006 xyz
    dof rx ry rz
  end
  begin
    id 9
    name HEadDummy
    direction -1.48118e-008 0.999999 0.00127422
    length 3.43865
    axis -0.00138909 0.000121453 1.00341e-006 xyz
  end
  begin
    id 10
    name HEad
    direction -0.0222688 0.980941 0.193023
    length 5.12695
    axis -0.00138909 0.000121453 1.00341e-006 xyz
    dof rx ry rz
  end
  begin
    id 11
    name LeftShoulder1Dummy
    direction 0.998891 -0.0402509 -0.0244456
    length 3.5433
    axis -0.00138909 0.000121453 1.00341e-006 xyz
  end
  begin
    id 12
    name LeftShoulder1
    direction 0.99951 -0.000327768 0.0313091
    length 4.05031
    axis -0.00138909 0.000121453 1.00341e-006 xyz
    dof rx ry rz
  end
  begin
    id 13
    name LeftArm
    direction 0.998561 -0.00100057 -0.0536182
    length 10.3537
    axis -23.1894 0.134785 0.967509 xyz
    dof rx ry rz
  end
  begin
    id 14
    name LeftForeArm
    direction 0.998903 0.00866432 0.0460119
    length 8.70632
    axis -9.91835 -0.0656885 -0.177794 xyz
    dof rx ry rz
  end
  begin
    id 15
    name LeftHand
    direction 0.992938 -0.0411637 0.11126
    length 5.32135
    axis -0.00960338 -0.0033994 0.185172 xyz
    dof rx ry rz
  end
  begin
    id 16
    name RightShoulderDummy
    direction -0.998891 -0.0402509 -0.0244414
    length 3.5433
    axis -0.00138909 0.000121453 1.00341e-006 xyz
  end
  begin
    id 17
    name RightShoulder
    direction -0.99951 -0.000327802 0.0313133
    length 4.05031
    axis 0.215806 0.000203644 -0.0068029 xyz
    dof rx ry rz
  end
  begin
    id 18
    name RightArm
    direction -0.998573 -0.000999559 -0.053403
    length 10.3947
    axis -23.2009 -0.13424 -0.964101 xyz
    dof rx ry rz
  end
  begin
    id 19
    name RightForeArm
    direction -0.998898 0.00868028 0.0461306
    length 8.68355
    axis -9.92322 0.0658049 0.178868 xyz
    dof rx ry rz
  end
  begin
    id 20
    name RightHand
    direction -0.992843 -0.0414603 0.112003
    length 5.28593
    axis -0.00961221 0.00330442 -0.185228 xyz
    dof rx ry rz
  end
  begin
    id 21
    name LeftUpLegDummy
    direction 0.718183 -0.695806 0.00816078
    length 4.904
    axis 0 0 0 xyz
  end
  begin
    id 22
    name LeftUpLeg
    direction -6.82186e-006 -0.995793 0.0916336
    length 17.4976
    axis -3.48766 0.0014344 -0.00052451 xyz
    dof rx ry rz
  end
  begin
    id 23
    name LeftLeg
    direction -0.00601358 -0.995091 -0.0987824
    length 16.5821
    axis 3.68177 -0.00653924 -0.000285273 xyz
    dof rx ry rz
  end
  begin
    id 24
    name LeftFoot
    direction -0.00417579 -0.460984 0.887399
    length 3.77069
    axis 9.18994e-007 4.80418e-005 -1.15487e-005 xyz
    dof rx ry rz
  end
  begin
    id 25
    name LeftToes
    direction 0.00818061 -0.0048516 0.999955
    length 3.85048
    axis 1.03739e-005 4.80329e-005 -1.15497e-005 xyz
    dof rx ry rz
  end
:hierarchy
  begin
    root RightUpLegDummy SpineDummy LeftUpLegDummy
    RightUpLegDummy RightUpLeg
    RightUpLeg RightLeg
    RightLeg RightFoot
    RightFoot RightToes
    SpineDummy Spine
    Spine Spine1
    Spine1 HEadDummy LeftShoulder1Dummy RightShoulderDummy
    HEadDummy HEad
    LeftShoulder1Dummy LeftShoulder1
    LeftShoulder1 LeftArm
    LeftArm LeftForeArm
    LeftForeArm LeftHand
    RightShoulderDummy RightShoulder
    RightShoulder RightArm
    RightArm RightForeArm
    RightForeArm RightHand
    LeftUpLegDummy LeftUpLeg
    LeftUpLeg LeftLeg
    LeftLeg LeftFoot
    LeftFoot LeftToes
  end

:SAMPLES-PER-SECOND 25
:FULLY-SPECIFIED
:DEGREES
1
root  -2.18103 40.0027 -69.5584 -3.10984 -1.60188 0.30532
RightUpLeg  -3.94513 2.27355 2.95959
RightLeg  14.7797 -0.145886 -1.23573
RightFoot  -2.64521 -0.027863 0.0662102
RightToes  2.84633e-005 7.89722e-005 -0.000426369
Spine  5.2439 1.71106 1.86767
Spine1  10.9424 2.48624 1.29688
HEad  1.34487 -10.8715 -5.4569
LeftShoulder1  -3.88251e-019 0 -3.92111e-022
LeftArm  -32.2408 -5.45138 -82.1378
LeftForeArm  34.0184 2.15622 -0.800678
LeftHand  -0.70293 -4.55776 8.48457
RightShoulder  7.45443e-017 -2.42657e-020 1.96277e-018
RightArm  1.35447 -3.67449 72.0831
RightForeArm  -0.912379 25.3083 5.47235
RightHand  -1.83349 12.0891 -12.5135
LeftUpLeg  -55.9832 -2.63063 0.296365
LeftLeg  46.1239 -4.50025 -4.58518
LeftFoot  -13.2529 0.103984 1.463
LeftToes  3.91355e-005 3.11907e-005 -4.10385e-006
2
root  -2.15719 40.0792 -69.1416 -3.1192 -2.11306 0.448635
RightUpLeg  -3.28859 2.22425 2.71917
RightLeg  14.753 0.4301 -1.0151
RightFoot  -2.6776 -0.040086 0.255972
RightToes  2.84633e-005 7.89722e-005 -0.000426369
Spine  5.51774 1.67444 1.65014
Spine1  11.4724 2.47045 1.06083
HEad  0.175915 -11.3615 -5.37228
LeftShoulder1  -3.88251e-019 0 -3.92111e-022
LeftArm  -31.8276 -6.40324 -81.0957
LeftForeArm  35.3182 2.09871 -0.581142
LeftHand  -0.632355 -4.67194 7.58326
RightShoulder  7.45443e-017 -2.42657e-020 1.96277e-018
RightArm  2.99639 -3.49667 72.4032
RightForeArm  -1.14829 25.3834 5.5015
RightHand  -1.64621 11.7693 -11.4835
LeftUpLeg  -55.7491 -2.28557 0.125204
LeftLeg  44.9402 -4.90835 -4.82513
LeftFoot  -7.94346 -0.0589379 3.34613
LeftToes  3.91355e-005 3.11907e-005 -4.10385e-006
3
root  -2.10884 40.138 -68.3577 -2.73505 -3.04052 0.406998
RightUpLeg  -2.52994 2.33479 2.6445
RightLeg  14.8774 1.27014 -0.770288
RightFoot  -3.24061 -0.0560349 0.503547
RightToes  2.84633e-005 7.89722e-005 -0.000426369
Spine  5.74246 1.57809 1.5649
Spine1  11.9292 2.28876 0.887724
HEad  -1.61484 -12.4964 -5.1434
LeftShoulder1  -3.88251e-019 0 -3.92111e-022
LeftArm  -31.355 -7.83158 -78.8433
LeftForeArm  37.977 2.01384 -0.396579
LeftHand  -0.55207 -4.66475 6.66355
RightShoulder  7.45443e-017 -2.42657e-020 1.96277e-018
RightArm  5.64724 -3.44555 72.8606
RightForeArm  -0.712117 25.1103 5.41718
RightHand  -1.33101 11.2315 -9.65997
LeftUpLeg  -56.318 -1.3321 -0.240513
LeftLeg  46.0908 -4.37246 -4.42816
LeftFoot  -3.55878 -0.415776 6.51424
LeftToes  3.91355e-005 3.11907e-005 -4.10385e-006
4
root  -2.07814 40.1166 -67.6048 -1.97644 -3.7436 0.45351
RightUpLeg  -2.38844 2.8309 2.55565
RightLeg  15.4189 1.52186 -0.741084
RightFoot  -4.41092 -0.0593851 0.555549
RightToes  2.84633e-005 7.89722e-005 -0.000426369
Spine  5.7764 1.46599 1.53073
Spine1  12.0293 2.0259 0.615159
HEad  -3.61407 -14.2748 -4.23812
LeftShoulder1  -3.88251e-019 0 -3.92111e-022
LeftArm  -31.0773 -9.72751 -76.0745
LeftForeArm  40.7871 1.9148 -0.171247
LeftHand  -0.478544 -4.47739 5.91452
RightShoulder  7.45443e-017 -2.42657e-020 1.96277e-018
RightArm  7.11051 -3.73761 73.3249
RightForeArm  -0.0734651 24.2857 5.12945
RightHand  -1.05157 10.6082 -8.00438
LeftUpLeg  -57.707 -0.586709 -0.629986
LeftLeg  49.362 -3.11806 -3.44047
LeftFoot  -2.91371 -0.508442 7.14576
LeftToes  3.91355e-005 3.11907e-005 -4.10385e-006
5
root  -2.07331 40.1098 -66.9765 -1.32171 -4.06677 0.894191
RightUpLeg  -2.2826 3.21391 2.06968
RightLeg  15.8187 1.63787 -0.775577
RightFoot  -5.38895 -0.0602802 0.569442
RightToes  2.84633e-005 7.89722e-005 -0.000426369
Spine  5.84268 1.39138 1.24205
Spine1  12.1826 1.88093 -0.0872419
HEad  -5.57329 -16.4278 -2.7693
LeftShoulder1  -3.88251e-019 0 -3.92111e-022
LeftArm  -30.8696 -12.6024 -73.154
LeftForeArm  42.4493 1.7565 0.750156
LeftHand  -0.44835 -4.29417 5.65547
RightShoulder  7.45443e-017 -2.42657e-020 1.96277e-018
RightArm  5.67621 -4.03098 73.9662
RightForeArm  1.46585 22.2695 5.3057
RightHand  -0.92214 10.1216 -7.27811
LeftUpLeg  -58.5019 -0.25168 -1.17631
LeftLeg  51.4835 -2.70566 -3.18565
LeftFoot  -3.51394 -0.417862 6.40295
LeftToes  3.91355e-005 3.11907e-005 -4.10385e-006
6
root  -2.06673 40.1615 -66.39 -0.79722 -4.22054 1.21261
RightUpLeg  -1.79386 2.94147 1.69383
RightLeg  15.5274 2.10278 -0.831283
RightFoot  -5.61118 -0.0721279 0.753326
RightToes  2.84633e-005 7.89722e-005 -0.000426369
Spine  5.81833 1.34215 0.980507
Spine1  12.1515 1.79713 -0.753732
HEad  -6.0553 -18.3928 -1.95326
LeftShoulder1  -3.88251e-019 0 -3.92111e-022
LeftArm  -30.7958 -15.5862 -70.2977
LeftForeArm  42.1172 1.63644 1.99517
LeftHand  -0.524472 -4.02242 6.73979
RightShoulder  7.45443e-017 -2.42657e-020 1.96277e-018
RightArm  -1.63416 -4.20802 74.2771
RightForeArm  9.01208 18.3327 7.47109
RightHand  -0.947913 9.85914 -7.58788
LeftUpLeg  -58.4748 0.199532 -1.74605
LeftLeg  52.3902 -2.84923 -3.49818
LeftFoot  -5.73524 -0.287758 6.57648
LeftToes  3.91355e-005 3.11907e-005 -4.10385e-006
